# xmcd CD database file
#
# Track frame offsets:
#	150
#	26678
#	55039
#	82908
#	114791
#	225756
#
# Disc length: 4791 seconds
#
# Revision: 0
# Processed by: cddbd v1.5.2PL0 Copyright (c) Steve Scherf et al.
# Submitted via: CDex 2.00
#
DISCID=3012b506
DTITLE=Gordon Beck - Jubilation CD2
DYEAR=2018
DGENRE=Jazz
TTITLE0=Little D
TTITLE1=The Curtain
TTITLE2=Was That The Way It Was?
TTITLE3=Headin' On Out
TTITLE4=Suite: Bits and Pieces (Solo)
TTITLE5=Untitled improvisation (MOB -Incl Blue in Green)
EXTD=YEAR: 2018
EXTT0=
EXTT1=
EXTT2=
EXTT3=
EXTT4=
EXTT5=
PLAYORDER=
